<?xml version="1.0" encoding="UTF-8" standalone="no"?>
<svg
   version="1.0"
   width="1920.000000pt"
   height="1080.000000pt"
   viewBox="0 0 100px 1080px"
   preserveAspectRatio="xMidYMid meet"
   id="svg75"
   sodipodi:docname="Play-code1.svg"
   inkscape:version="1.2 (dc2aedaf03, 2022-05-15)"
   xmlns:inkscape="http://www.inkscape.org/namespaces/inkscape"
   xmlns:sodipodi="http://sodipodi.sourceforge.net/DTD/sodipodi-0.dtd"
   xmlns="http://www.w3.org/2000/svg"
   xmlns:svg="http://www.w3.org/2000/svg">
  <defs
     id="defs79" />
  <sodipodi:namedview
     id="namedview77"
     pagecolor="#ffffff"
     bordercolor="#000000"
     borderopacity="0.25"
     inkscape:showpageshadow="2"
     inkscape:pageopacity="0.0"
     inkscape:pagecheckerboard="0"
     inkscape:deskcolor="#d1d1d1"
     inkscape:document-units="pt"
     showgrid="false"
     inkscape:zoom="0.51527778"
     inkscape:cx="1020.8086"
     inkscape:cy="720"
     inkscape:window-width="1920"
     inkscape:window-height="974"
     inkscape:window-x="-11"
     inkscape:window-y="-11"
     inkscape:window-maximized="1"
     inkscape:current-layer="svg75" />
  <g
     transform="translate(0.000000,1080.000000) scale(0.100000,-0.100000)"
     fill="#000000"
     stroke="none"
     id="g73">
    <path
       d="M7050 8660 c0 -109 -4 -171 -11 -175 -6 -4 -20 2 -32 13 -39 35 -91 48 -134 33 -58 -21 -89 -47 -117 -98 -42 -74 -56 -147 -56 -290 0 -209 44 -324 138 -364 41 -18 52 -19 87 -9 22 7 57 30 78 51 22 21 43 39 48 39 5 0 9 -16 9 -35 l0 -35 70 0 70 0 0 510 c0 400 -3 511 -12 514 -7 3 -41 7 -75 10 l-63 6 0 -170z m-37 -284 c36 -34 39 -51 35 -234 -3 -145 -5 -163 -24 -189 -12 -15 -33 -35 -47 -43 -24 -13 -30 -13 -60 3 -38 21 -50 48 -67 155 -9 57 -9 92 0 155 15 107 17 112 47 147 32 38 79 41 116 6z"
       id="path45"
       style="fill:#ff0000" />
    <path
       d="M1781 8610 c-44 -10 -82 -39 -101 -76 -16 -32 -17 -70 -5 -226 l8 -107 -31 -29 c-19 -18 -47 -32 -72 -36 l-40 -6 0 -60 c0 -52 2 -60 19 -60 31 0 89 -28 105 -52 19 -26 21 -112 5 -207 -13 -85 2 -151 42 -185 28 -24 104 -46 159 -46 29 0 30 1 30 50 0 46 -2 50 -24 50 -13 0 -36 10 -51 22 -27 21 -27 23 -21 102 3 45 8 108 12 141 5 52 3 64 -18 94 -26 39 -72 69 -106 70 -34 1 -24 34 14 46 84 28 120 84 110 175 -19 176 -19 200 -1 220 10 11 33 22 51 26 33 6 34 8 34 55 l0 49 -42 -1 c-24 -1 -58 -5 -77 -9z"
       id="path47"
       style="fill:#ff0202;fill-opacity:1" />
    <path
       d="M2035 8588 c-3 -7 -4 -236 -3 -508 l3 -495 57 -3 58 -3 2 193 3 193 115 6 c141 8 171 14 238 46 106 51 172 160 172 282 0 161 -89 253 -275 286 -110 19 -363 21 -370 3z m427 -121 c76 -44 93 -77 93 -179 0 -81 -2 -88 -31 -125 -16 -21 -54 -50 -84 -65 -49 -26 -63 -28 -166 -28 -93 0 -113 3 -118 16 -3 9 -6 100 -6 203 0 136 3 191 13 200 9 10 43 12 133 9 109 -3 124 -6 166 -31z"
       id="path49"
       style="fill:#3b19e6;fill-opacity:1" />
    <path
       d="M2875 8588 c-3 -7 -4 -236 -3 -508 l3 -495 308 -3 307 -2 0 50 0 50 -247 2 -248 3 -5 455 -5 455 -53 3 c-36 2 -54 -1 -57 -10z"
       id="path51"
       style="fill:#3c1ae5;fill-opacity:1" />
    <path
       d="M3909 8573 c-49 -127 -63 -165 -79 -213 -10 -30 -22 -66 -28 -80 -12 -28 -37 -99 -77 -210 -15 -41 -35 -97 -45 -125 -10 -27 -30 -84 -45 -125 -15 -41 -31 -84 -35 -95 -5 -11 -16 -40 -24 -65 -8 -25 -18 -53 -21 -63 -7 -16 -2 -18 51 -15 l58 3 46 135 c25 74 49 141 53 148 6 9 64 12 231 12 l223 0 16 -37 c9 -21 21 -56 28 -78 6 -22 15 -48 20 -57 5 -10 9 -27 9 -37 0 -11 4 -22 9 -25 4 -3 11 -19 14 -36 6 -29 8 -30 61 -30 30 0 57 4 60 9 5 7 -21 84 -54 166 -4 11 -13 34 -18 50 -19 55 -63 180 -72 200 -4 11 -13 34 -18 50 -19 55 -63 180 -72 200 -4 11 -13 34 -18 50 -38 112 -71 202 -95 258 l-17 37 -75 0 c-73 0 -76 -1 -86 -27z m118 -153 c13 -41 33 -95 54 -145 4 -11 19 -54 33 -95 14 -41 34 -99 45 -129 11 -30 18 -58 15 -62 -3 -5 -86 -9 -185 -9 -137 0 -179 3 -179 13 0 6 19 64 41 127 23 63 60 168 82 233 35 98 45 117 60 115 13 -2 24 -18 34 -48z"
       id="path53"
       style="fill:#3c1ae5;fill-opacity:1" />
    <path
       d="M4455 8591 c-3 -6 17 -45 43 -88 27 -43 103 -166 168 -273 l119 -195 5 -225 5 -225 58 -3 57 -3 0 226 0 226 76 122 c42 67 110 175 151 239 87 139 113 185 113 198 0 11 -79 14 -104 4 -9 -3 -16 -10 -16 -15 0 -7 -28 -54 -202 -332 -26 -43 -48 -82 -48 -86 0 -5 -7 -11 -15 -15 -19 -7 -39 21 -170 239 -59 99 -115 188 -123 198 -16 19 -106 25 -117 8z"
       id="path55"
       style="fill:#1a4be5;fill-opacity:1" />
    <path
       d="M8306 8528 c-7 -18 -25 -58 -39 -88 -97 -206 -385 -855 -382 -860 9 -14 95 -52 107 -47 7 2 26 36 42 73 16 38 42 96 57 129 154 341 338 754 341 764 3 15 -67 60 -94 61 -11 0 -23 -13 -32 -32z"
       id="path57"
       style="fill:#194ce6;fill-opacity:1" />
    <path
       d="M5665 8528 c-104 -36 -163 -103 -201 -227 -17 -56 -19 -250 -3 -300 33 -104 82 -172 146 -204 63 -31 120 -40 171 -27 53 14 129 58 137 78 4 11 -26 81 -52 121 -1 2 -14 -6 -30 -17 -15 -10 -44 -25 -64 -32 -32 -11 -41 -11 -75 6 -76 37 -103 118 -91 277 8 99 36 154 92 180 34 17 44 17 79 6 23 -7 50 -19 61 -26 11 -7 22 -13 26 -13 3 0 18 23 34 52 l28 51 -31 28 c-32 29 -122 60 -169 58 -15 -1 -41 -6 -58 -11z"
       id="path59"
       style="fill:#ff0000" />
    <path
       d="M6260 8528 c-63 -26 -76 -34 -98 -57 -70 -72 -102 -171 -102 -320 0 -225 67 -343 215 -381 110 -27 227 43 276 166 19 49 24 81 27 195 4 153 -8 214 -57 291 -59 93 -177 141 -261 106z m124 -159 c14 -17 29 -43 32 -57 3 -15 9 -46 15 -69 13 -58 11 -116 -5 -202 -23 -118 -73 -163 -140 -127 -57 31 -71 77 -71 241 1 115 4 146 19 175 30 57 46 70 87 70 29 0 43 -6 63 -31z"
       id="path61"
       style="fill:#ff0000" />
    <path
       d="M7560 8530 c-8 -5 -24 -10 -35 -10 -11 0 -37 -14 -58 -31 -103 -85 -152 -292 -112 -469 34 -145 97 -218 219 -250 40 -11 57 -11 100 0 61 16 117 43 142 71 18 20 18 22 -5 65 -13 24 -27 44 -30 44 -3 0 -28 -11 -55 -25 -59 -30 -110 -32 -153 -5 -40 24 -73 87 -73 140 l0 40 181 0 181 0 -4 103 c-6 132 -32 204 -97 267 -59 58 -159 87 -201 60z m88 -124 c27 -14 36 -28 61 -89 14 -37 14 -90 -1 -105 -18 -18 -192 -16 -207 2 -25 30 9 146 52 181 37 28 57 31 95 11z"
       id="path63"
       style="fill:#ff0000" />
    <path
       d="M8566 8316 l-89 -42 94 -38 c475 -195 532 -220 513 -227 -10 -4 -71 -17 -134 -28 -467 -81 -710 -126 -710 -131 0 -21 82 -130 97 -130 10 0 117 20 238 44 121 24 353 70 516 102 l296 58 18 50 c9 28 19 56 22 62 2 6 -74 44 -174 87 -98 42 -263 112 -367 156 -104 45 -199 81 -210 80 -12 0 -61 -20 -110 -43z"
       id="path65"
       style="fill:#194ce4;fill-opacity:1" />
    <path
       d="M7180 7605 c0 -45 0 -45 35 -45 35 0 35 0 35 45 0 45 0 45 -35 45 -35 0 -35 0 -35 -45z"
       id="path67"
       style="fill:#ff0000" />
    <path
       d="M7410 7605 c0 -45 0 -45 35 -45 35 0 35 0 35 45 0 45 0 45 -35 45 -35 0 -35 0 -35 -45z"
       id="path69"
       style="fill:#ff0000" />
    <path
       d="M7640 7605 c0 -45 0 -45 35 -45 35 0 35 0 35 45 0 45 0 45 -35 45 -35 0 -35 0 -35 -45z"
       id="path71"
       style="fill:#ff0000" />
  </g>
</svg>
